<mxfile host="app.diagrams.net" modified="2023-10-18T17:12:54.535Z" agent="Mozilla/5.0 (Windows NT 10.0; Win64; x64) AppleWebKit/537.36 (KHTML, like Gecko) Chrome/119.0.0.0 Safari/537.36 Edg/119.0.0.0" version="22.0.4" etag="7CRDnJFAyx5Gw2b52JMM" type="github">
  <diagram name="Page-1" id="L_10gwpPHH3yg9pPHb6f">
    <mxGraphModel>
      <root>
        <mxCell id="0" />
        <mxCell id="1" parent="0" />
      </root>
    </mxGraphModel>
  </diagram>
</mxfile>
